<svg width="24" height="24" viewBox="0 0 24 24" fill="none" xmlns="http://www.w3.org/2000/svg">
<g clip-path="url(#clip0_19_1274)">
<path d="M12 2.1624C15.204 2.1624 15.5844 2.1744 16.8504 2.2332C20.1024 2.3808 21.6204 3.924 21.7692 7.152C21.8268 8.4168 21.8376 8.796 21.8376 12C21.8376 15.2064 21.8256 15.5856 21.7692 16.8504C21.6204 20.0748 20.1048 21.6204 16.8492 21.7692C15.5844 21.8268 15.2052 21.8388 12 21.8388C8.796 21.8388 8.4156 21.8268 7.152 21.7692C3.8904 21.6204 2.3796 20.07 2.232 16.8492C2.1744 15.5844 2.1624 15.2052 2.1624 12C2.1624 8.796 2.1744 8.4168 2.232 7.152C2.3808 3.924 3.8964 2.3796 7.152 2.232C8.4168 2.1744 8.796 2.1624 12 2.1624ZM12 0C8.7408 0 8.3328 0.0144 7.0524 0.072C2.6952 0.2724 0.2724 2.6904 0.0732 7.0524C0.012 8.3328 0 8.7408 0 12C0 15.2592 0.0144 15.6684 0.072 16.9476C0.2724 21.306 2.6904 23.7276 7.0524 23.928C8.3328 23.9856 8.7408 24 12 24C15.2592 24 15.6684 23.9856 16.9476 23.928C21.3024 23.7276 23.73 21.3096 23.9268 16.9476C23.9868 15.6684 24 15.2592 24 12C24 8.7408 23.9856 8.3328 23.928 7.0536C23.7324 2.6988 21.312 0.2736 16.9488 0.072C15.6684 0.012 15.2592 0 12 0ZM12 5.838C10.3657 5.838 8.79841 6.48721 7.64281 7.64281C6.48721 8.79841 5.838 10.3657 5.838 12C5.838 13.6343 6.48721 15.2016 7.64281 16.3572C8.79841 17.5128 10.3657 18.162 12 18.162C13.6343 18.162 15.2016 17.5128 16.3572 16.3572C17.5128 15.2016 18.162 13.6343 18.162 12C18.162 10.3657 17.5128 8.79841 16.3572 7.64281C15.2016 6.48721 13.6343 5.838 12 5.838ZM12 15.9996C10.9392 15.9996 9.92193 15.5782 9.17186 14.8281C8.42179 14.0781 8.0004 13.0608 8.0004 12C8.0004 10.9392 8.42179 9.92193 9.17186 9.17186C9.92193 8.42179 10.9392 8.0004 12 8.0004C13.0608 8.0004 14.0781 8.42179 14.8281 9.17186C15.5782 9.92193 15.9996 10.9392 15.9996 12C15.9996 13.0608 15.5782 14.0781 14.8281 14.8281C14.0781 15.5782 13.0608 15.9996 12 15.9996ZM18.4056 4.1556C18.0237 4.1556 17.6574 4.30731 17.3874 4.57737C17.1173 4.84742 16.9656 5.21369 16.9656 5.5956C16.9656 5.97751 17.1173 6.34378 17.3874 6.61383C17.6574 6.88389 18.0237 7.0356 18.4056 7.0356C18.7875 7.0356 19.1538 6.88389 19.4238 6.61383C19.6939 6.34378 19.8456 5.97751 19.8456 5.5956C19.8456 5.21369 19.6939 4.84742 19.4238 4.57737C19.1538 4.30731 18.7875 4.1556 18.4056 4.1556Z" fill="white"/>
</g>
<defs>
<clipPath id="clip0_19_1274">
<rect width="24" height="24" fill="white"/>
</clipPath>
</defs>
</svg>
