<svg width="24" height="22" viewBox="0 0 24 22" fill="none" xmlns="http://www.w3.org/2000/svg">
<path d="M24 3.40646C23.1013 3.80483 22.1479 4.06614 21.1716 4.18166C22.2006 3.56702 22.9706 2.59869 23.3376 1.45766C22.3709 2.03134 21.3133 2.43556 20.2104 2.65286C19.7499 2.16118 19.1932 1.76941 18.575 1.50188C17.9567 1.23435 17.2901 1.09676 16.6164 1.09766C13.4364 1.09766 11.1012 4.06406 11.8188 7.14206C9.86126 7.04439 7.94614 6.53613 6.19778 5.65027C4.44943 4.76441 2.90692 3.52076 1.6704 2.00006C1.04129 3.08423 0.848707 4.3673 1.1318 5.58839C1.41489 6.80948 2.15241 7.87691 3.1944 8.57366C2.41274 8.5492 1.64827 8.33813 0.9648 7.95806C0.9108 10.2381 2.5464 12.3729 4.914 12.8481C4.18886 13.045 3.42833 13.0737 2.6904 12.9321C3.00482 13.9104 3.61726 14.766 4.44201 15.379C5.26677 15.992 6.26255 16.3318 7.29 16.3509C5.22602 17.9693 2.60413 18.7026 0 18.3897C2.25154 19.8361 4.87187 20.6039 7.548 20.6013C16.6896 20.6013 21.8556 12.8805 21.5436 5.95526C22.5071 5.25809 23.3389 4.39504 24 3.40646Z" fill="white"/>
</svg>
