<svg width="24" height="24" viewBox="0 0 24 24" fill="none" xmlns="http://www.w3.org/2000/svg">
<g clip-path="url(#clip0_24_627)">
<path d="M22.6752 0H1.3248C0.5928 0 0 0.5928 0 1.3248V22.6764C0 23.4072 0.5928 24 1.3248 24H12.8208V14.706H9.6912V11.0844H12.8184V8.412C12.8184 5.3124 14.712 3.624 17.478 3.624C18.8028 3.624 19.9404 3.7224 20.2728 3.7668V7.0068H18.3552C16.8504 7.0068 16.56 7.7232 16.56 8.7708V11.0844H20.1468L19.6788 14.706H16.5588V24H22.6764C23.406 24 23.9988 23.4072 23.9988 22.6752V1.3248C24 0.5928 23.4072 0 22.6752 0Z" fill="white"/>
</g>
<defs>
<clipPath id="clip0_24_627">
<rect width="24" height="24" fill="white"/>
</clipPath>
</defs>
</svg>
