<svg width="24" height="22" viewBox="0 0 24 22" fill="none" xmlns="http://www.w3.org/2000/svg">
<path d="M24 3.40597C23.1013 3.80434 22.1479 4.06565 21.1716 4.18117C22.2006 3.56653 22.9706 2.5982 23.3376 1.45717C22.3709 2.03085 21.3133 2.43507 20.2104 2.65237C19.7499 2.16069 19.1932 1.76893 18.575 1.50139C17.9567 1.23386 17.2901 1.09627 16.6164 1.09717C13.4364 1.09717 11.1012 4.06357 11.8188 7.14157C9.86126 7.04391 7.94614 6.53564 6.19778 5.64978C4.44943 4.76392 2.90692 3.52027 1.6704 1.99957C1.04129 3.08374 0.848707 4.36681 1.1318 5.5879C1.41489 6.80899 2.15241 7.87642 3.1944 8.57317C2.41274 8.54871 1.64827 8.33764 0.9648 7.95757C0.9108 10.2376 2.5464 12.3724 4.914 12.8476C4.18886 13.0445 3.42833 13.0732 2.6904 12.9316C3.00482 13.9099 3.61726 14.7655 4.44201 15.3785C5.26677 15.9915 6.26255 16.3313 7.29 16.3504C5.22602 17.9688 2.60413 18.7021 0 18.3892C2.25154 19.8356 4.87187 20.6034 7.548 20.6008C16.6896 20.6008 21.8556 12.88 21.5436 5.95477C22.5071 5.2576 23.3389 4.39455 24 3.40597Z" fill="white"/>
</svg>
