<svg width="16" height="16" viewBox="0 0 16 16" fill="none" xmlns="http://www.w3.org/2000/svg">
<path d="M8 1.33325C4.32 1.33325 1.33334 4.31992 1.33334 7.99992C1.33334 11.6799 4.32 14.6666 8 14.6666C11.68 14.6666 14.6667 11.6799 14.6667 7.99992C14.6667 4.31992 11.68 1.33325 8 1.33325ZM8 13.3333C5.06 13.3333 2.66667 10.9399 2.66667 7.99992C2.66667 5.05992 5.06 2.66659 8 2.66659C10.94 2.66659 13.3333 5.05992 13.3333 7.99992C13.3333 10.9399 10.94 13.3333 8 13.3333ZM6.33334 10.9999L11 7.99992L6.33334 4.99992V10.9999Z" fill="white"/>
</svg>
